<svg xmlns="http://www.w3.org/2000/svg" width="360" height="160" viewBox="0 0 360 160">
  <defs>
    <linearGradient id="comb" x1="0" x2="1">
      <stop offset="0%" stop-color="#f59e0b"/>
      <stop offset="100%" stop-color="#fbbf24"/>
    </linearGradient>
  </defs>
  <rect x="20" y="50" width="220" height="40" rx="18" fill="url(#comb)"/>
  <g fill="url(#comb)">
    <rect x="40" y="90" width="8" height="44" rx="4"/>
    <rect x="64" y="90" width="8" height="44" rx="4"/>
    <rect x="88" y="90" width="8" height="44" rx="4"/>
    <rect x="112" y="90" width="8" height="44" rx="4"/>
    <rect x="136" y="90" width="8" height="44" rx="4"/>
    <rect x="160" y="90" width="8" height="44" rx="4"/>
    <rect x="184" y="90" width="8" height="44" rx="4"/>
    <rect x="208" y="90" width="8" height="44" rx="4"/>
  </g>
  <path d="M265 38c18 0 34 14 38 30 6 26-10 46-38 50" fill="none" stroke="#1e293b" stroke-width="6" stroke-linecap="round"/>
  <path d="M290 16c20 8 30 20 34 36" fill="none" stroke="#1e293b" stroke-width="5" stroke-linecap="round"/>
</svg>
