<svg width="320" height="260" viewBox="0 0 320 260" fill="none" xmlns="http://www.w3.org/2000/svg">
  <defs>
    <linearGradient id="aaBody" x1="0" y1="0" x2="0" y2="1">
      <stop offset="0" stop-color="#F8D26A"/>
      <stop offset="0.48" stop-color="#E2A739"/>
      <stop offset="1" stop-color="#A56A1D"/>
    </linearGradient>
    <linearGradient id="aaCap" x1="0" y1="0" x2="0" y2="1">
      <stop offset="0" stop-color="#F7FAFD"/>
      <stop offset="1" stop-color="#B8C2CE"/>
    </linearGradient>
    <linearGradient id="aaBand" x1="0" y1="0" x2="1" y2="0">
      <stop offset="0" stop-color="#121A29"/>
      <stop offset="1" stop-color="#2A3448"/>
    </linearGradient>
  </defs>

  <ellipse cx="160" cy="228" rx="92" ry="15" fill="#BFCADB" fill-opacity="0.4"/>

  <!-- Rear batteries -->
  <g transform="translate(72 90)">
    <rect x="0" y="20" width="44" height="108" rx="15" fill="url(#aaBody)" stroke="#805218" stroke-width="3"/>
    <rect x="5" y="12" width="34" height="16" rx="8" fill="url(#aaCap)" stroke="#8D98A8" stroke-width="2"/>
    <circle cx="22" cy="9" r="4.2" fill="#DCE2EA" stroke="#98A4B3" stroke-width="1.4"/>
    <rect x="5" y="62" width="34" height="16" rx="8" fill="url(#aaBand)"/>
    <rect x="9" y="30" width="8" height="88" rx="4" fill="white" fill-opacity="0.24"/>
    <path d="M22 38V48M17 43H27" stroke="#6A4515" stroke-width="3.2" stroke-linecap="round"/>
  </g>

  <g transform="translate(204 96)">
    <rect x="0" y="16" width="40" height="100" rx="14" fill="url(#aaBody)" stroke="#805218" stroke-width="3"/>
    <rect x="5" y="8" width="30" height="14" rx="7" fill="url(#aaCap)" stroke="#8D98A8" stroke-width="2"/>
    <circle cx="20" cy="6" r="3.8" fill="#DCE2EA" stroke="#98A4B3" stroke-width="1.3"/>
    <rect x="4" y="56" width="32" height="15" rx="7.5" fill="url(#aaBand)"/>
    <rect x="9" y="24" width="7" height="82" rx="3.5" fill="white" fill-opacity="0.24"/>
  </g>

  <!-- Front batteries -->
  <g transform="translate(112 74)">
    <rect x="0" y="16" width="48" height="124" rx="16" fill="url(#aaBody)" stroke="#7A4E17" stroke-width="3.4"/>
    <rect x="6" y="6" width="36" height="18" rx="9" fill="url(#aaCap)" stroke="#8994A3" stroke-width="2"/>
    <circle cx="24" cy="4" r="4.7" fill="#E3E9F0" stroke="#97A3B2" stroke-width="1.5"/>
    <rect x="6" y="66" width="36" height="18" rx="9" fill="url(#aaBand)"/>
    <rect x="11" y="26" width="8" height="102" rx="4" fill="white" fill-opacity="0.24"/>
    <path d="M24 36V47M18 41.5H30" stroke="#624111" stroke-width="3.6" stroke-linecap="round"/>
  </g>

  <g transform="translate(158 82)">
    <rect x="0" y="18" width="46" height="116" rx="16" fill="url(#aaBody)" stroke="#7A4E17" stroke-width="3.2"/>
    <rect x="6" y="8" width="34" height="17" rx="8.5" fill="url(#aaCap)" stroke="#8994A3" stroke-width="2"/>
    <circle cx="23" cy="6" r="4.3" fill="#E3E9F0" stroke="#97A3B2" stroke-width="1.4"/>
    <rect x="6" y="62" width="34" height="17" rx="8.5" fill="url(#aaBand)"/>
    <rect x="10" y="28" width="8" height="95" rx="4" fill="white" fill-opacity="0.24"/>
  </g>
</svg>
