<svg width="320" height="260" viewBox="0 0 320 260" fill="none" xmlns="http://www.w3.org/2000/svg">
  <ellipse cx="160" cy="226" rx="78" ry="14" fill="#C7D2E2" fill-opacity="0.4"/>
  <g>
    <rect x="88" y="84" width="44" height="112" rx="14" fill="url(#paint0_linear)" stroke="#946414" stroke-width="4"/>
    <rect x="95" y="76" width="30" height="14" rx="7" fill="#D9DDE3"/>
    <rect x="88" y="130" width="44" height="18" rx="9" fill="#6D4B0C" fill-opacity="0.4"/>
  </g>
  <g>
    <rect x="136" y="72" width="44" height="124" rx="14" fill="url(#paint1_linear)" stroke="#946414" stroke-width="4"/>
    <rect x="143" y="64" width="30" height="14" rx="7" fill="#D9DDE3"/>
    <rect x="136" y="122" width="44" height="18" rx="9" fill="#6D4B0C" fill-opacity="0.4"/>
    <path d="M158 82V94M152 88H164" stroke="#7A5A1A" stroke-width="4" stroke-linecap="round"/>
  </g>
  <g>
    <rect x="184" y="86" width="44" height="110" rx="14" fill="url(#paint2_linear)" stroke="#946414" stroke-width="4"/>
    <rect x="191" y="78" width="30" height="14" rx="7" fill="#D9DDE3"/>
    <rect x="184" y="130" width="44" height="18" rx="9" fill="#6D4B0C" fill-opacity="0.4"/>
  </g>
  <g>
    <rect x="232" y="98" width="44" height="98" rx="14" fill="url(#paint3_linear)" stroke="#946414" stroke-width="4"/>
    <rect x="239" y="90" width="30" height="14" rx="7" fill="#D9DDE3"/>
    <rect x="232" y="136" width="44" height="18" rx="9" fill="#6D4B0C" fill-opacity="0.4"/>
  </g>
  <defs>
    <linearGradient id="paint0_linear" x1="110" y1="84" x2="110" y2="196" gradientUnits="userSpaceOnUse">
      <stop stop-color="#FFD665"/>
      <stop offset="1" stop-color="#E89A12"/>
    </linearGradient>
    <linearGradient id="paint1_linear" x1="158" y1="72" x2="158" y2="196" gradientUnits="userSpaceOnUse">
      <stop stop-color="#FFD665"/>
      <stop offset="1" stop-color="#E89A12"/>
    </linearGradient>
    <linearGradient id="paint2_linear" x1="206" y1="86" x2="206" y2="196" gradientUnits="userSpaceOnUse">
      <stop stop-color="#FFD665"/>
      <stop offset="1" stop-color="#E89A12"/>
    </linearGradient>
    <linearGradient id="paint3_linear" x1="254" y1="98" x2="254" y2="196" gradientUnits="userSpaceOnUse">
      <stop stop-color="#FFD665"/>
      <stop offset="1" stop-color="#E89A12"/>
    </linearGradient>
  </defs>
</svg>
