<svg width="320" height="260" viewBox="0 0 320 260" fill="none" xmlns="http://www.w3.org/2000/svg">
  <ellipse cx="160" cy="226" rx="86" ry="15" fill="#C7D2E2" fill-opacity="0.36"/>
  <defs>
    <linearGradient id="batteryBody" x1="0" y1="0" x2="0" y2="1">
      <stop offset="0" stop-color="#F8C94D"/>
      <stop offset="0.5" stop-color="#E4A52B"/>
      <stop offset="1" stop-color="#B77312"/>
    </linearGradient>
    <linearGradient id="batteryCap" x1="0" y1="0" x2="0" y2="1">
      <stop offset="0" stop-color="#F4F6F8"/>
      <stop offset="1" stop-color="#AEB8C4"/>
    </linearGradient>
    <linearGradient id="batteryBand" x1="0" y1="0" x2="1" y2="0">
      <stop offset="0" stop-color="#1E293B"/>
      <stop offset="1" stop-color="#334155"/>
    </linearGradient>
  </defs>

  <g transform="translate(84 88)">
    <rect x="0" y="10" width="38" height="104" rx="14" fill="url(#batteryBody)" stroke="#8A5510" stroke-width="4"/>
    <rect x="6" y="2" width="26" height="16" rx="8" fill="url(#batteryCap)" stroke="#98A4B3" stroke-width="2"/>
    <rect x="4" y="54" width="30" height="14" rx="7" fill="url(#batteryBand)"/>
    <rect x="9" y="19" width="7" height="83" rx="3.5" fill="white" fill-opacity="0.28"/>
    <rect x="22" y="19" width="4" height="83" rx="2" fill="#8A5510" fill-opacity="0.24"/>
  </g>

  <g transform="translate(122 78)">
    <rect x="0" y="10" width="42" height="114" rx="15" fill="url(#batteryBody)" stroke="#8A5510" stroke-width="4"/>
    <rect x="7" y="0" width="28" height="18" rx="9" fill="url(#batteryCap)" stroke="#98A4B3" stroke-width="2"/>
    <circle cx="21" cy="4" r="4" fill="#DDE3EA"/>
    <rect x="6" y="56" width="30" height="14" rx="7" fill="url(#batteryBand)"/>
    <rect x="10" y="18" width="7" height="91" rx="3.5" fill="white" fill-opacity="0.28"/>
    <path d="M21 30V41M15 35.5H27" stroke="#6F4A12" stroke-width="4" stroke-linecap="round"/>
  </g>

  <g transform="translate(166 90)">
    <rect x="0" y="10" width="38" height="102" rx="14" fill="url(#batteryBody)" stroke="#8A5510" stroke-width="4"/>
    <rect x="6" y="2" width="26" height="16" rx="8" fill="url(#batteryCap)" stroke="#98A4B3" stroke-width="2"/>
    <rect x="4" y="52" width="30" height="14" rx="7" fill="url(#batteryBand)"/>
    <rect x="9" y="19" width="7" height="81" rx="3.5" fill="white" fill-opacity="0.28"/>
  </g>

  <g transform="translate(204 102)">
    <rect x="0" y="10" width="36" height="92" rx="13" fill="url(#batteryBody)" stroke="#8A5510" stroke-width="4"/>
    <rect x="6" y="2" width="24" height="16" rx="8" fill="url(#batteryCap)" stroke="#98A4B3" stroke-width="2"/>
    <rect x="3" y="48" width="28" height="13" rx="6.5" fill="url(#batteryBand)"/>
    <rect x="8" y="18" width="6" height="73" rx="3" fill="white" fill-opacity="0.28"/>
  </g>
</svg>
