<svg width="320" height="260" viewBox="0 0 320 260" fill="none" xmlns="http://www.w3.org/2000/svg">
  <ellipse cx="160" cy="223" rx="58" ry="14" fill="#C7D2E2" fill-opacity="0.38"/>
  <defs>
    <radialGradient id="glassGlow" cx="0" cy="0" r="1" gradientUnits="userSpaceOnUse" gradientTransform="translate(138 56) rotate(59) scale(112 104)">
      <stop offset="0" stop-color="#FFFDF0"/>
      <stop offset="0.56" stop-color="#FFE08D"/>
      <stop offset="1" stop-color="#EEB049"/>
    </radialGradient>
    <linearGradient id="baseMetal" x1="160" y1="162" x2="160" y2="205" gradientUnits="userSpaceOnUse">
      <stop offset="0" stop-color="#D6DDE6"/>
      <stop offset="1" stop-color="#7F8D9F"/>
    </linearGradient>
  </defs>

  <path d="M160 18C122 18 96 47 96 87C96 117 110 138 128 154C139 164 145 172 145 181H175C175 172 181 164 192 154C210 138 224 117 224 87C224 47 198 18 160 18Z" fill="url(#glassGlow)" stroke="#243B63" stroke-width="6"/>
  <path d="M128 118C131 144 143 158 160 172C177 158 189 144 192 118" stroke="#7A5B2B" stroke-width="5" stroke-linecap="round"/>
  <path d="M142 93L152 110L160 97L169 110L178 92" stroke="#F0C248" stroke-width="6" stroke-linecap="round" stroke-linejoin="round"/>
  <path d="M152 110V132M169 110V132" stroke="#9A7A34" stroke-width="4" stroke-linecap="round"/>
  <ellipse cx="137" cy="61" rx="18" ry="11" fill="white" fill-opacity="0.56"/>

  <rect x="139" y="181" width="42" height="14" rx="4" fill="url(#baseMetal)" stroke="#5E6B80" stroke-width="4"/>
  <rect x="136" y="195" width="48" height="12" rx="4" fill="#98A4B5"/>
  <rect x="138" y="207" width="44" height="11" rx="4" fill="#7B889A"/>
  <rect x="145" y="218" width="30" height="12" rx="4" fill="#5D6A7E"/>
  <rect x="155" y="230" width="10" height="16" rx="4" fill="#465467"/>
</svg>
