<svg width="320" height="260" viewBox="0 0 320 260" fill="none" xmlns="http://www.w3.org/2000/svg">
  <ellipse cx="160" cy="224" rx="82" ry="15" fill="#C7D2E2" fill-opacity="0.36"/>
  <defs>
    <linearGradient id="metalJaw" x1="0" y1="0" x2="1" y2="1">
      <stop offset="0" stop-color="#E5EBF2"/>
      <stop offset="1" stop-color="#95A3B5"/>
    </linearGradient>
  </defs>

  <path d="M68 149C103 88 211 88 248 148" stroke="#111827" stroke-width="12" stroke-linecap="round"/>
  <path d="M68 149C103 88 211 88 248 148" stroke="#CC2F2F" stroke-width="8" stroke-linecap="round"/>
  <path d="M78 182C114 132 198 129 238 182" stroke="#111827" stroke-width="12" stroke-linecap="round"/>
  <path d="M78 182C114 132 198 129 238 182" stroke="#2563EB" stroke-width="8" stroke-linecap="round"/>

  <g transform="translate(48 136)">
    <rect x="0" y="4" width="26" height="24" rx="7" fill="#1F2937"/>
    <rect x="5" y="5" width="7" height="22" rx="3.5" fill="#CBD5E1"/>
    <path d="M26 9L40 16L26 23" fill="url(#metalJaw)"/>
    <circle cx="15" cy="16" r="3.5" fill="#475569"/>
  </g>

  <g transform="translate(232 136)">
    <rect x="14" y="4" width="26" height="24" rx="7" fill="#1F2937"/>
    <rect x="28" y="5" width="7" height="22" rx="3.5" fill="#CBD5E1"/>
    <path d="M14 9L0 16L14 23" fill="url(#metalJaw)"/>
    <circle cx="25" cy="16" r="3.5" fill="#475569"/>
  </g>

  <g transform="translate(58 170)">
    <rect x="0" y="4" width="26" height="24" rx="7" fill="#1F2937"/>
    <rect x="5" y="5" width="7" height="22" rx="3.5" fill="#CBD5E1"/>
    <path d="M26 9L40 16L26 23" fill="url(#metalJaw)"/>
    <circle cx="15" cy="16" r="3.5" fill="#475569"/>
  </g>

  <g transform="translate(224 170)">
    <rect x="14" y="4" width="26" height="24" rx="7" fill="#1F2937"/>
    <rect x="28" y="5" width="7" height="22" rx="3.5" fill="#CBD5E1"/>
    <path d="M14 9L0 16L14 23" fill="url(#metalJaw)"/>
    <circle cx="25" cy="16" r="3.5" fill="#475569"/>
  </g>
</svg>
