<svg xmlns="http://www.w3.org/2000/svg" viewBox="0 0 900 620" role="img" aria-label="Dry cloth">
  <defs>
    <linearGradient id="clothBase" x1="0" y1="0" x2="1" y2="1">
      <stop offset="0%" stop-color="#fdf7ea"/>
      <stop offset="100%" stop-color="#e8d7b7"/>
    </linearGradient>
    <linearGradient id="clothShade" x1="0" y1="0" x2="1" y2="1">
      <stop offset="0%" stop-color="#f7ead1"/>
      <stop offset="100%" stop-color="#d7bd92"/>
    </linearGradient>
    <filter id="clothShadow" x="-30%" y="-30%" width="170%" height="190%">
      <feDropShadow dx="0" dy="18" stdDeviation="16" flood-color="#1f2937" flood-opacity=".22"/>
    </filter>
  </defs>

  <rect width="900" height="620" fill="none"/>

  <g filter="url(#clothShadow)">
    <path
      d="M222 208c33-30 97-42 160-18l57 22 104-44c65-27 129-18 169 25 31 34 40 78 25 116-13 31-40 49-67 67l-120 82c-67 46-154 59-224 27l-100-45c-43-19-72-52-80-96-8-48 11-101 53-136z"
      fill="url(#clothBase)"
      stroke="#d6bd93"
      stroke-width="8"
      stroke-linejoin="round"
    />
    <path
      d="M264 235c44 23 88 42 138 43 59 2 110-18 163-39 31-12 62-24 94-28"
      fill="none"
      stroke="#fefaf2"
      stroke-width="16"
      stroke-linecap="round"
      stroke-opacity=".72"
    />
    <path
      d="M266 286c44 28 77 52 128 57 73 6 135-28 197-59 46-23 96-43 140-46"
      fill="none"
      stroke="#cfb084"
      stroke-width="9"
      stroke-linecap="round"
      stroke-opacity=".58"
    />
    <path
      d="M245 355c56 43 117 73 188 72 87-1 149-43 214-88"
      fill="none"
      stroke="#d8be97"
      stroke-width="10"
      stroke-linecap="round"
      stroke-opacity=".6"
    />
    <path
      d="M312 186c17 26 22 48 15 67"
      fill="none"
      stroke="url(#clothShade)"
      stroke-width="12"
      stroke-linecap="round"
      stroke-opacity=".8"
    />
    <path
      d="M603 214c11 21 13 42 7 58"
      fill="none"
      stroke="#ccb18a"
      stroke-width="10"
      stroke-linecap="round"
      stroke-opacity=".72"
    />
  </g>
</svg>
