<svg xmlns="http://www.w3.org/2000/svg" viewBox="0 0 900 320" role="img" aria-label="Realistic marker pen">
  <defs>
    <linearGradient id="mkBody" x1="0" y1="0" x2="1" y2="0">
      <stop offset="0%" stop-color="#fdfefe"/>
      <stop offset="40%" stop-color="#eef3f8"/>
      <stop offset="70%" stop-color="#d9e3ee"/>
      <stop offset="100%" stop-color="#c7d5e3"/>
    </linearGradient>
    <linearGradient id="mkCap" x1="0" y1="0" x2="1" y2="1">
      <stop offset="0%" stop-color="#64e0a0"/>
      <stop offset="70%" stop-color="#2dbc76"/>
      <stop offset="100%" stop-color="#14985b"/>
    </linearGradient>
    <linearGradient id="mkTip" x1="0" y1="0" x2="1" y2="1">
      <stop offset="0%" stop-color="#f9fcff"/>
      <stop offset="100%" stop-color="#bccfdf"/>
    </linearGradient>
    <linearGradient id="mkBand" x1="0" y1="0" x2="0" y2="1">
      <stop offset="0%" stop-color="#f8fbff"/>
      <stop offset="100%" stop-color="#d5e1ee"/>
    </linearGradient>
    <filter id="mkShadow" x="-20%" y="-40%" width="150%" height="220%">
      <feDropShadow dx="0" dy="18" stdDeviation="14" flood-color="#1f2937" flood-opacity=".24"/>
    </filter>
  </defs>

  <rect width="900" height="320" fill="none"/>

  <g transform="translate(84 160)" filter="url(#mkShadow)">
    <rect x="0" y="-74" width="706" height="148" rx="74" fill="url(#mkBody)" stroke="#adbfd1" stroke-width="4"/>

    <rect x="-2" y="-74" width="146" height="148" rx="74" fill="url(#mkCap)"/>
    <rect x="120" y="-74" width="32" height="148" rx="6" fill="url(#mkBand)" opacity=".96"/>

    <path d="M688 -58l116 58-116 58z" fill="url(#mkTip)" stroke="#a6b9cc" stroke-width="4"/>
    <path d="M803 -13l14 13-14 13z" fill="#eef5fc"/>

    <path d="M54 -52c25 18 25 88 0 106" fill="none" stroke="#0e7b4f" stroke-opacity=".34" stroke-width="14" stroke-linecap="round"/>
    <path d="M198 -36h370" stroke="#d7e1ec" stroke-width="5" stroke-linecap="round"/>
    <path d="M198 36h308" stroke="#d7e1ec" stroke-width="5" stroke-linecap="round"/>
    <path d="M244 -12h230" stroke="#b8c8d8" stroke-width="4" stroke-linecap="round"/>

    <ellipse cx="414" cy="-30" rx="238" ry="24" fill="#ffffff" opacity=".32"/>
  </g>
</svg>
